<svg width="342" height="28" viewBox="0 0 342 28" fill="none" xmlns="http://www.w3.org/2000/svg">
<path d="M28.2031 -20.1484L30.1035 -19.525L30.1664 -19.7167L30.1897 -19.9171L28.2031 -20.1484ZM12.7344 27V29H14.1831L14.6347 27.6235L12.7344 27ZM0.273438 27L-1.60133 26.3034L-2.60329 29H0.273438V27ZM21.4062 -29.875V-31.875H20.0158L19.5315 -30.5716L21.4062 -29.875ZM29.3359 -29.875L31.3225 -29.6436L31.5824 -31.875H29.3359V-29.875ZM41.0547 27L39.1548 27.6249L39.6071 29H41.0547V27ZM25.5469 -20.1484L23.5632 -19.8935L23.5875 -19.7045L23.647 -19.5235L25.5469 -20.1484ZM24.2969 -29.875V-31.875H22.0234L22.3132 -29.6201L24.2969 -29.875ZM32.3047 -29.875L34.1782 -30.575L33.6925 -31.875H32.3047V-29.875ZM53.5547 27V29H56.437L55.4282 26.3L53.5547 27ZM40.3516 5.82812H42.3516V3.82812H40.3516V5.82812ZM40.3516 15.0078V17.0078H42.3516V15.0078H40.3516ZM10.3125 15.0078H8.3125V17.0078H10.3125V15.0078ZM10.3125 5.82812V3.82812H8.3125V5.82812H10.3125ZM26.3028 -20.7719L10.834 26.3765L14.6347 27.6235L30.1035 -19.525L26.3028 -20.7719ZM12.7344 25H0.273438V29H12.7344V25ZM2.1482 27.6966L23.281 -29.1784L19.5315 -30.5716L-1.60133 26.3034L2.1482 27.6966ZM21.4062 -27.875H29.3359V-31.875H21.4062V-27.875ZM27.3494 -30.1064L26.2166 -20.3798L30.1897 -19.9171L31.3225 -29.6436L27.3494 -30.1064ZM42.9546 26.3751L27.4467 -20.7733L23.647 -19.5235L39.1548 27.6249L42.9546 26.3751ZM27.5306 -20.4034L26.2806 -30.1299L22.3132 -29.6201L23.5632 -19.8935L27.5306 -20.4034ZM24.2969 -27.875H32.3047V-31.875H24.2969V-27.875ZM30.4312 -29.175L51.6812 27.7L55.4282 26.3L34.1782 -30.575L30.4312 -29.175ZM53.5547 25H41.0547V29H53.5547V25ZM38.3516 5.82812V15.0078H42.3516V5.82812H38.3516ZM40.3516 13.0078H10.3125V17.0078H40.3516V13.0078ZM12.3125 15.0078V5.82812H8.3125V15.0078H12.3125ZM10.3125 7.82812H40.3516V3.82812H10.3125V7.82812ZM108.803 -2.72656H110.803V-4.72656H108.803V-2.72656ZM108.803 19.8125L110.343 21.0892L110.803 20.5339V19.8125H108.803ZM104.702 23.2891L105.806 24.9568L105.814 24.9514L105.822 24.9459L104.702 23.2891ZM97.5531 26.4531L96.9722 24.5394L97.5531 26.4531ZM76.9281 25.9844L76.1771 27.838L76.184 27.8408L76.1909 27.8435L76.9281 25.9844ZM69.1156 20.6328L67.6454 21.9887L67.6535 21.9975L69.1156 20.6328ZM64.1156 12.0391L62.2241 12.6888L62.2257 12.6933L64.1156 12.0391ZM64.0375 -14.875L62.1415 -15.5118L62.1372 -15.4987L64.0375 -14.875ZM98.3734 -28.2734L97.4673 -26.4904L97.479 -26.4846L98.3734 -28.2734ZM105.639 -21.6328L103.914 -20.6202L103.92 -20.6108L103.925 -20.6015L105.639 -21.6328ZM108.764 -11.9453V-9.94531H110.99L110.753 -12.1584L108.764 -11.9453ZM97.3969 -11.9453L95.4186 -11.6512L95.6722 -9.94531H97.3969V-11.9453ZM92.2797 -20.3438L91.3241 -18.5868L91.3305 -18.5833L91.3369 -18.5799L92.2797 -20.3438ZM81.2641 -20.3438L82.1829 -18.5673L82.1943 -18.5733L81.2641 -20.3438ZM75.0922 8.25L73.1519 8.73507L73.1532 8.74031L75.0922 8.25ZM77.6312 13.9922L76.0056 15.1572L76.0167 15.1726L76.028 15.1878L77.6312 13.9922ZM92.2797 18.1719L91.7946 16.2316L91.7849 16.234L92.2797 18.1719ZM95.2875 17.0391L96.2989 18.7645L96.3077 18.7593L96.3165 18.7541L95.2875 17.0391ZM97.0844 15.7109L98.4986 17.1252L99.0844 16.5394V15.7109H97.0844ZM97.0844 5.63281H99.0844V3.63281H97.0844V5.63281ZM86.3812 5.63281H84.3812V7.63281H86.3812V5.63281ZM86.3812 -2.72656V-4.72656H84.3812V-2.72656H86.3812ZM106.803 -2.72656V19.8125H110.803V-2.72656H106.803ZM107.264 18.5358C106.55 19.3965 105.356 20.4322 103.581 21.6322L105.822 24.9459C107.745 23.6459 109.286 22.3639 110.343 21.0892L107.264 18.5358ZM103.598 21.6214C101.958 22.7068 99.7676 23.6908 96.9722 24.5394L98.1341 28.3669C101.172 27.4447 103.747 26.3192 105.806 24.9568L103.598 21.6214ZM96.9722 24.5394C94.2976 25.3513 90.9764 25.7812 86.9672 25.7812V29.7812C91.2392 29.7812 94.9753 29.3258 98.1341 28.3669L96.9722 24.5394ZM86.9672 25.7812C83.5152 25.7812 80.423 25.2188 77.6654 24.1252L76.1909 27.8435C79.4749 29.1458 83.0755 29.7812 86.9672 29.7812V25.7812ZM77.6792 24.1307C74.9235 23.0142 72.5632 21.3955 70.5777 19.2682L67.6535 21.9975C70.043 24.5576 72.8911 26.5066 76.1771 27.838L77.6792 24.1307ZM70.5859 19.2769C68.6329 17.1593 67.0985 14.5422 66.0056 11.3848L62.2257 12.6933C63.4765 16.3068 65.2754 19.4188 67.6454 21.9887L70.5859 19.2769ZM66.0071 11.3893C64.9205 8.22604 64.3578 4.55879 64.3578 0.359375H60.3578C60.3578 4.90996 60.967 9.02917 62.2241 12.6888L66.0071 11.3893ZM64.3578 0.359375V-3.19531H60.3578V0.359375H64.3578ZM64.3578 -3.19531C64.3578 -7.40305 64.8966 -11.0795 65.9377 -14.2513L62.1372 -15.4987C60.9388 -11.8476 60.3578 -7.73758 60.3578 -3.19531H64.3578ZM65.9334 -14.2382C67.0044 -17.4269 68.5046 -20.0562 70.4069 -22.1699L67.4337 -24.8457C65.1173 -22.272 63.3622 -19.146 62.1416 -15.5118L65.9334 -14.2382ZM70.4069 -22.1699C72.3183 -24.2937 74.5877 -25.905 77.2333 -27.0152L75.6855 -30.7036C72.4977 -29.3658 69.7411 -27.4094 67.4337 -24.8457L70.4069 -22.1699ZM77.2333 -27.0152C79.8755 -28.1239 82.8501 -28.6953 86.1859 -28.6953V-32.6953C82.3864 -32.6953 78.8766 -32.0427 75.6855 -30.7036L77.2333 -27.0152ZM86.1859 -28.6953C90.9343 -28.6953 94.6584 -27.918 97.4673 -26.4905L99.2795 -30.0564C95.7343 -31.8581 91.3334 -32.6953 86.1859 -32.6953V-28.6953ZM97.479 -26.4846C100.339 -25.0547 102.459 -23.0986 103.914 -20.6202L107.364 -22.6455C105.486 -25.8441 102.762 -28.315 99.2679 -30.0623L97.479 -26.4846ZM103.925 -20.6015C105.451 -18.0663 106.412 -15.1226 106.775 -11.7322L110.753 -12.1584C110.335 -16.0596 109.212 -19.5744 107.353 -22.6641L103.925 -20.6015ZM108.764 -13.9453H97.3969V-9.94531H108.764V-13.9453ZM99.3751 -12.2394C99.0592 -14.3645 98.4458 -16.2857 97.4986 -17.9664L94.0139 -16.0023C94.6812 -14.8184 95.1616 -13.3803 95.4186 -11.6512L99.3751 -12.2394ZM97.4986 -17.9664C96.4965 -19.7443 95.0536 -21.1289 93.2224 -22.1076L91.3369 -18.5799C92.5266 -17.944 93.4014 -17.0891 94.0139 -16.0023L97.4986 -17.9664ZM93.2352 -22.1007C91.3633 -23.1188 89.0751 -23.5547 86.4984 -23.5547V-19.5547C88.6614 -19.5547 90.2273 -19.1833 91.3241 -18.5868L93.2352 -22.1007ZM86.4984 -23.5547C84.2623 -23.5547 82.1915 -23.0903 80.3338 -22.1142L82.1943 -18.5733C83.4095 -19.2118 84.8283 -19.5547 86.4984 -19.5547V-23.5547ZM80.3452 -22.1202C78.512 -21.172 76.9918 -19.7761 75.7805 -17.9895L79.0914 -15.7449C79.9634 -17.0312 80.9953 -17.953 82.1829 -18.5673L80.3452 -22.1202ZM75.7805 -17.9895C74.5747 -16.211 73.6983 -14.075 73.109 -11.6333L76.9973 -10.6948C77.5017 -12.7844 78.2138 -14.4505 79.0914 -15.7449L75.7805 -17.9895ZM73.109 -11.6333C72.5162 -9.17773 72.2328 -6.38399 72.2328 -3.27344H76.2328C76.2328 -6.15247 76.4963 -8.61914 76.9973 -10.6948L73.109 -11.6333ZM72.2328 -3.27344V0.359375H76.2328V-3.27344H72.2328ZM72.2328 0.359375C72.2328 3.45188 72.5307 6.25033 73.1519 8.73507L77.0325 7.76493C76.5078 5.66633 76.2328 3.20437 76.2328 0.359375H72.2328ZM73.1532 8.74031C73.7746 11.1976 74.7124 13.3527 76.0056 15.1572L79.2569 12.8271C78.3105 11.5066 77.5556 9.83362 77.0312 7.75969L73.1532 8.74031ZM76.028 15.1878C77.3624 16.9771 79.0237 18.3527 81.0011 19.2797L82.6989 15.6578C81.343 15.0223 80.1918 14.0802 79.2345 12.7965L76.028 15.1878ZM81.0011 19.2797C82.9818 20.2081 85.2219 20.6406 87.6703 20.6406V16.6406C85.6916 16.6406 84.0515 16.2919 82.6989 15.6578L81.0011 19.2797ZM87.6703 20.6406C89.6166 20.6406 91.333 20.4777 92.7745 20.1097L91.7849 16.234C90.7784 16.491 89.4219 16.6406 87.6703 16.6406V20.6406ZM92.7648 20.1122C94.1211 19.7731 95.3218 19.3373 96.2989 18.7645L94.2761 15.3137C93.7428 15.6263 92.9383 15.9457 91.7946 16.2316L92.7648 20.1122ZM96.3165 18.7541C97.1706 18.2416 97.9215 17.7022 98.4986 17.1252L95.6702 14.2967C95.4139 14.553 94.9669 14.8991 94.2585 15.3241L96.3165 18.7541ZM99.0844 15.7109V5.63281H95.0844V15.7109H99.0844ZM97.0844 3.63281H86.3812V7.63281H97.0844V3.63281ZM88.3812 5.63281V-2.72656H84.3812V5.63281H88.3812ZM86.3812 -0.726562H108.803V-4.72656H86.3812V-0.726562ZM162.02 17.8594H164.02V15.8594H162.02V17.8594ZM162.02 27V29H164.02V27H162.02ZM131.747 27H129.747V29H131.747V27ZM131.747 17.8594V15.8594H129.747V17.8594H131.747ZM135.575 -29.875H137.575V-31.875H135.575V-29.875ZM135.575 27V29H137.575V27H135.575ZM123.856 27H121.856V29H123.856V27ZM123.856 -29.875V-31.875H121.856V-29.875H123.856ZM158.075 -6.71094H160.075V-8.71094H158.075V-6.71094ZM158.075 2.19531V4.19531H160.075V2.19531H158.075ZM131.747 2.19531H129.747V4.19531H131.747V2.19531ZM131.747 -6.71094V-8.71094H129.747V-6.71094H131.747ZM161.981 -29.875H163.981V-31.875H161.981V-29.875ZM161.981 -20.6953V-18.6953H163.981V-20.6953H161.981ZM131.747 -20.6953H129.747V-18.6953H131.747V-20.6953ZM131.747 -29.875V-31.875H129.747V-29.875H131.747ZM160.02 17.8594V27H164.02V17.8594H160.02ZM162.02 25H131.747V29H162.02V25ZM133.747 27V17.8594H129.747V27H133.747ZM131.747 19.8594H162.02V15.8594H131.747V19.8594ZM133.575 -29.875V27H137.575V-29.875H133.575ZM135.575 25H123.856V29H135.575V25ZM125.856 27V-29.875H121.856V27H125.856ZM123.856 -27.875H135.575V-31.875H123.856V-27.875ZM156.075 -6.71094V2.19531H160.075V-6.71094H156.075ZM158.075 0.195312H131.747V4.19531H158.075V0.195312ZM133.747 2.19531V-6.71094H129.747V2.19531H133.747ZM131.747 -4.71094H158.075V-8.71094H131.747V-4.71094ZM159.981 -29.875V-20.6953H163.981V-29.875H159.981ZM161.981 -22.6953H131.747V-18.6953H161.981V-22.6953ZM133.747 -20.6953V-29.875H129.747V-20.6953H133.747ZM131.747 -27.875H161.981V-31.875H131.747V-27.875ZM220.745 -29.875H222.745V-31.875H220.745V-29.875ZM220.745 27V29H222.745V27H220.745ZM209.027 27L207.311 28.0282L207.894 29H209.027V27ZM186.175 -11.125L187.89 -12.1532L184.175 -18.352V-11.125H186.175ZM186.175 27V29H188.175V27H186.175ZM174.456 27H172.456V29H174.456V27ZM174.456 -29.875V-31.875H172.456V-29.875H174.456ZM186.175 -29.875L187.89 -30.9037L187.308 -31.875H186.175V-29.875ZM209.066 8.28906L207.35 9.31779L211.066 15.5118V8.28906H209.066ZM209.066 -29.875V-31.875H207.066V-29.875H209.066ZM218.745 -29.875V27H222.745V-29.875H218.745ZM220.745 25H209.027V29H220.745V25ZM210.742 25.9718L187.89 -12.1532L184.46 -10.0968L207.311 28.0282L210.742 25.9718ZM184.175 -11.125V27H188.175V-11.125H184.175ZM186.175 25H174.456V29H186.175V25ZM176.456 27V-29.875H172.456V27H176.456ZM174.456 -27.875H186.175V-31.875H174.456V-27.875ZM184.46 -28.8463L207.35 9.31779L210.781 7.26033L187.89 -30.9037L184.46 -28.8463ZM211.066 8.28906V-29.875H207.066V8.28906H211.066ZM209.066 -27.875H220.745V-31.875H209.066V-27.875ZM241.619 27L239.619 26.9829L239.602 29H241.619V27ZM241.697 17.8594V15.8594H239.714L239.697 17.8423L241.697 17.8594ZM261.775 15.7891L262.87 17.4626L262.877 17.4579L262.884 17.4532L261.775 15.7891ZM266.541 9.65625L264.689 8.90108L264.686 8.90882L264.682 8.91658L266.541 9.65625ZM267.244 -10.5391L265.313 -10.0167L265.316 -10.0061L265.319 -9.99561L267.244 -10.5391ZM260.134 -19.5234L259.317 -17.6981L259.328 -17.693L259.34 -17.688L260.134 -19.5234ZM241.384 -20.6953H239.384V-18.6953H241.384V-20.6953ZM241.384 -29.875V-31.875H239.384V-29.875H241.384ZM264.548 -27.9219L263.785 -26.0735L263.794 -26.0697L263.803 -26.066L264.548 -27.9219ZM272.791 -22.4141L274.228 -23.8046L272.791 -22.4141ZM278.142 -13.8203L276.27 -13.1181L276.273 -13.1092L276.276 -13.1004L278.142 -13.8203ZM278.142 10.9844L276.274 10.2693L276.27 10.2821L278.142 10.9844ZM272.791 19.5781L271.353 18.1875L271.353 18.1878L272.791 19.5781ZM264.548 25.0859L265.294 26.9419L265.302 26.9387L264.548 25.0859ZM248.259 -29.875H250.259V-31.875H248.259V-29.875ZM248.259 27V29H250.259V27H248.259ZM236.541 27H234.541V29H236.541V27ZM236.541 -29.875V-31.875H234.541V-29.875H236.541ZM254.002 25H241.619V29H254.002V25ZM243.619 27.0171L243.697 17.8765L239.697 17.8423L239.619 26.9829L243.619 27.0171ZM241.697 19.8594H254.002V15.8594H241.697V19.8594ZM254.002 19.8594C257.378 19.8594 260.37 19.0984 262.87 17.4626L260.68 14.1155C258.961 15.2401 256.771 15.8594 254.002 15.8594V19.8594ZM262.884 17.4532C265.377 15.7916 267.203 13.401 268.399 10.3959L264.682 8.91658C263.743 11.2761 262.392 12.9741 260.666 14.125L262.884 17.4532ZM268.393 10.4114C269.609 7.42721 270.181 3.91386 270.181 -0.0703125H266.181C266.181 3.54968 265.659 6.5207 264.689 8.90108L268.393 10.4114ZM270.181 -0.0703125V-2.84375H266.181V-0.0703125H270.181ZM270.181 -2.84375C270.181 -5.89751 269.855 -8.65225 269.168 -11.0825L265.319 -9.99561C265.883 -7.99879 266.181 -5.62333 266.181 -2.84375H270.181ZM269.174 -11.0615C268.518 -13.4885 267.511 -15.6081 266.115 -17.3678L262.981 -14.8822C263.982 -13.6211 264.772 -12.0167 265.313 -10.0167L269.174 -11.0615ZM266.115 -17.3678C264.716 -19.1326 262.98 -20.4709 260.929 -21.3589L259.34 -17.688C260.778 -17.0656 261.985 -16.1382 262.981 -14.8822L266.115 -17.3678ZM260.952 -21.3488C258.907 -22.2645 256.615 -22.6953 254.119 -22.6953V-18.6953C256.154 -18.6953 257.872 -18.3449 259.317 -17.6981L260.952 -21.3488ZM254.119 -22.6953H241.384V-18.6953H254.119V-22.6953ZM243.384 -20.6953V-29.875H239.384V-20.6953H243.384ZM241.384 -27.875H254.119V-31.875H241.384V-27.875ZM254.119 -27.875C257.689 -27.875 260.902 -27.2646 263.785 -26.0735L265.312 -29.7703C261.893 -31.1834 258.153 -31.875 254.119 -31.875V-27.875ZM263.803 -26.066C266.727 -24.8918 269.236 -23.2118 271.353 -21.0235L274.228 -23.8046C271.71 -26.408 268.724 -28.3999 265.294 -29.7778L263.803 -26.066ZM271.353 -21.0235C273.467 -18.838 275.109 -16.2123 276.27 -13.1181L280.015 -14.5226C278.675 -18.095 276.749 -21.1985 274.228 -23.8046L271.353 -21.0235ZM276.276 -13.1004C277.452 -10.0537 278.056 -6.61748 278.056 -2.76562H282.056C282.056 -7.03877 281.385 -10.9723 280.008 -14.5402L276.276 -13.1004ZM278.056 -2.76562V-0.0703125H282.056V-2.76562H278.056ZM278.056 -0.0703125C278.056 3.75347 277.452 7.19216 276.274 10.2694L280.01 11.6994C281.384 8.10993 282.056 4.17882 282.056 -0.0703125H278.056ZM276.27 10.2821C275.109 13.3763 273.467 16.002 271.353 18.1875L274.228 20.9687C276.749 18.3625 278.675 15.2591 280.015 11.6866L276.27 10.2821ZM271.353 18.1878C269.264 20.3477 266.753 22.0307 263.795 23.2332L265.302 26.9387C268.75 25.537 271.734 23.5481 274.228 20.9684L271.353 18.1878ZM263.803 23.23C260.891 24.3997 257.632 25 254.002 25V29C258.079 29 261.852 28.3243 265.294 26.9418L263.803 23.23ZM246.259 -29.875V27H250.259V-29.875H246.259ZM248.259 25H236.541V29H248.259V25ZM238.541 27V-29.875H234.541V27H238.541ZM236.541 -27.875H248.259V-31.875H236.541V-27.875ZM316.438 -20.1484L318.338 -19.525L318.401 -19.7167L318.424 -19.9171L316.438 -20.1484ZM300.969 27V29H302.417L302.869 27.6235L300.969 27ZM288.508 27L286.633 26.3034L285.631 29H288.508V27ZM309.641 -29.875V-31.875H308.25L307.766 -30.5716L309.641 -29.875ZM317.57 -29.875L319.557 -29.6436L319.817 -31.875H317.57V-29.875ZM329.289 27L327.389 27.6249L327.841 29H329.289V27ZM313.781 -20.1484L311.798 -19.8935L311.822 -19.7045L311.881 -19.5235L313.781 -20.1484ZM312.531 -29.875V-31.875H310.258L310.548 -29.6201L312.531 -29.875ZM320.539 -29.875L322.413 -30.575L321.927 -31.875H320.539V-29.875ZM341.789 27V29H344.671L343.663 26.3L341.789 27ZM328.586 5.82812H330.586V3.82812H328.586V5.82812ZM328.586 15.0078V17.0078H330.586V15.0078H328.586ZM298.547 15.0078H296.547V17.0078H298.547V15.0078ZM298.547 5.82812V3.82812H296.547V5.82812H298.547ZM314.537 -20.7719L299.068 26.3765L302.869 27.6235L318.338 -19.525L314.537 -20.7719ZM300.969 25H288.508V29H300.969V25ZM290.383 27.6966L311.515 -29.1784L307.766 -30.5716L286.633 26.3034L290.383 27.6966ZM309.641 -27.875H317.57V-31.875H309.641V-27.875ZM315.584 -30.1064L314.451 -20.3798L318.424 -19.9171L319.557 -29.6436L315.584 -30.1064ZM331.189 26.3751L315.681 -20.7733L311.881 -19.5235L327.389 27.6249L331.189 26.3751ZM315.765 -20.4034L314.515 -30.1299L310.548 -29.6201L311.798 -19.8935L315.765 -20.4034ZM312.531 -27.875H320.539V-31.875H312.531V-27.875ZM318.666 -29.175L339.916 27.7L343.663 26.3L322.413 -30.575L318.666 -29.175ZM341.789 25H329.289V29H341.789V25ZM326.586 5.82812V15.0078H330.586V5.82812H326.586ZM328.586 13.0078H298.547V17.0078H328.586V13.0078ZM300.547 15.0078V5.82812H296.547V15.0078H300.547ZM298.547 7.82812H328.586V3.82812H298.547V7.82812Z" fill="#FF7707"/>
</svg>
