<svg width="577" height="313" viewBox="0 0 577 313" fill="black" xmlns="http://www.w3.org/2000/svg">
<path d="M1 219.267C1 255.441 17.2297 276.112 46.9383 276.112C76.647 276.112 92.8767 255.441 92.8767 219.267V177.925C92.8767 144.657 81.5984 126.247 59.3169 126.247C45.838 126.247 37.0354 133.03 31.8089 145.949H31.2588V104.93C31.2588 83.2905 37.3105 77.1538 48.0386 77.1538C57.6664 77.1538 63.7182 83.2905 63.7182 99.4397V107.514H92.3265V101.701C92.3265 65.5264 76.922 44.8554 47.2134 44.8554C15.8543 44.8554 1 65.5264 1 103.638V219.267ZM46.9383 158.546C56.5661 158.546 62.6179 164.682 62.6179 180.832V221.528C62.6179 237.677 56.5661 243.49 46.9383 243.49C37.3106 243.49 31.2588 237.677 31.2588 221.528V180.832C31.2588 164.682 37.3106 158.546 46.9383 158.546ZM139.64 99.4397C139.64 83.2905 145.692 77.1538 155.32 77.1538C164.948 77.1538 170.999 83.2905 170.999 99.4397V221.528C170.999 237.677 164.948 243.813 155.32 243.813C145.692 243.813 139.64 237.677 139.64 221.528V99.4397ZM109.381 219.267C109.381 255.441 125.611 276.112 155.32 276.112C185.028 276.112 201.258 255.441 201.258 219.267V101.701C201.258 65.5264 185.028 44.8554 155.32 44.8554C125.611 44.8554 109.381 65.5264 109.381 101.701V219.267Z" fill="black" fill-opacity="0.8" stroke="white" stroke-width="2" stroke-miterlimit="10"/>
<path d="M201.037 7.21187H207.834V44.4831H214.334V7.21187H221.131V1H201.037V7.21187ZM230.468 25.8475H237.855V44.4831H244.474V1H237.855V19.6356H230.468V1H223.967V44.4831H230.468V25.8475Z" stroke="white" stroke-width="2" stroke-miterlimit="10"/>
<path d="M255.905 107.275H267.121V177.943H277.849V107.275H289.064V95.4968H255.905V107.275ZM304.474 107.275H323.004V95.4968H293.746V177.943H323.004V166.165H304.474V142.02H319.201V130.242H304.474V107.275ZM350.605 147.202V158.981C350.605 164.87 348.459 166.99 345.045 166.99C341.632 166.99 339.486 164.87 339.486 158.981V114.459C339.486 108.57 341.632 106.333 345.045 106.333C348.459 106.333 350.605 108.57 350.605 114.459V123.293H360.747V115.284C360.747 102.093 355.286 94.5546 344.753 94.5546C334.22 94.5546 328.758 102.093 328.758 115.284V158.156C328.758 171.347 334.22 178.885 344.753 178.885C355.286 178.885 360.747 171.347 360.747 158.156V147.202L350.605 147.202ZM378.01 142.609H390.201V177.943H401.124V95.4968H390.201V130.831H378.01V95.4968H367.282V177.943H378.01V142.609ZM431.845 177.943H442.866V95.4968H433.308V144.847H433.113L422.288 95.4968H408.829V177.943H418.484V118.228H418.679L431.845 177.943ZM450.571 177.943H461.299V95.4968H450.571V177.943ZM490.07 147.202V158.981C490.07 164.87 487.924 166.99 484.511 166.99C481.097 166.99 478.951 164.87 478.951 158.981V114.459C478.951 108.57 481.097 106.333 484.511 106.333C487.924 106.333 490.07 108.57 490.07 114.459V123.293H500.213V115.284C500.213 102.093 494.751 94.5546 484.218 94.5546C473.685 94.5546 468.223 102.093 468.223 115.284V158.156C468.223 171.347 473.685 178.885 484.218 178.885C494.751 178.885 500.213 171.347 500.213 158.156V147.202L490.07 147.202ZM530.544 95.4968H514.842L503.919 177.943H513.769L515.622 162.985H528.788L530.641 177.943H541.467L530.544 95.4968ZM522.059 110.102H522.254L527.325 151.796H516.987L522.059 110.102ZM546.441 177.943H574.822V166.165H557.169V95.4968H546.441V177.943Z" stroke="white" stroke-width="3" stroke-miterlimit="10"/>
<path d="M275.079 239.203V248.994C275.079 253.889 273.245 255.652 270.326 255.652C267.408 255.652 265.573 253.889 265.573 248.994V211.983C265.573 207.088 267.408 205.228 270.326 205.228C273.245 205.228 275.079 207.088 275.079 211.983V219.327H283.752V212.669C283.752 201.703 279.082 195.437 270.076 195.437C261.07 195.437 256.4 201.703 256.4 212.669V248.308C256.4 259.274 261.07 265.541 270.076 265.541C279.082 265.541 283.752 259.274 283.752 248.308V239.203H275.079ZM297.761 211.983C297.761 207.088 299.596 205.228 302.514 205.228C305.433 205.228 307.268 207.088 307.268 211.983V248.994C307.268 253.889 305.433 255.75 302.514 255.75C299.596 255.75 297.761 253.889 297.761 248.994V211.983ZM288.588 248.308C288.588 259.274 293.508 265.541 302.514 265.541C311.521 265.541 316.44 259.274 316.44 248.308V212.669C316.44 201.703 311.521 195.437 302.514 195.437C293.508 195.437 288.588 201.703 288.588 212.669V248.308ZM341.958 264.757H351.381V196.22H343.208V237.245H343.042L333.785 196.22H322.278V264.757H330.533V215.117H330.7L341.958 264.757ZM367.141 206.011H382.234V196.22H357.968V264.757H367.141V236.461H378.982V226.67H367.141V206.011ZM395.827 206.011H411.671V196.22H386.654V264.757H411.671V254.966H395.827V234.895H408.419V225.104H395.827V206.011ZM445.86 264.757C444.943 262.212 444.86 259.764 444.86 256.435V245.861C444.86 238.713 443.359 233.622 438.772 231.37V231.174C442.858 228.922 444.776 224.418 444.776 217.369V211.983C444.776 201.409 440.69 196.22 431.184 196.22H417.341V264.757H426.514V236.853H429.683C433.852 236.853 435.687 239.203 435.687 245.567V256.337C435.687 261.918 436.02 262.995 436.521 264.757H445.86ZM430.934 206.011C434.186 206.011 435.603 208.165 435.603 213.061V219.816C435.603 225.299 433.519 227.062 430.1 227.062H426.514V206.011L430.934 206.011ZM460.036 206.011H475.88V196.22H450.864V264.757H475.88V254.966H460.036V234.895H472.628V225.104H460.036V206.011ZM501.147 264.757H510.57V196.22H502.398V237.245H502.231L492.975 196.22H481.467V264.757H489.723V215.117H489.89L501.147 264.757ZM535.087 239.203V248.994C535.087 253.889 533.252 255.652 530.333 255.652C527.415 255.652 525.58 253.889 525.58 248.994V211.983C525.58 207.088 527.415 205.228 530.333 205.228C533.252 205.228 535.087 207.088 535.087 211.983V219.327H543.759V212.669C543.759 201.703 539.089 195.437 530.083 195.437C521.077 195.437 516.407 201.703 516.407 212.669V248.308C516.407 259.274 521.077 265.541 530.083 265.541C539.089 265.541 543.759 259.274 543.759 248.308V239.203H535.087ZM558.519 206.011H574.363V196.22H549.346V264.757H574.363V254.966H558.519V234.895H571.111V225.104H558.519V206.011Z" stroke="white" stroke-width="3" stroke-miterlimit="10"/>
<path d="M490.736 285.093C490.736 288.718 489.17 291.376 483.692 295.678C478.344 299.835 476.518 302.687 476.518 306.457V310.613H497.258V305.78H483.692C483.626 305.538 483.627 305.297 483.627 305.055C483.627 303.267 484.8 301.672 489.04 298.288C495.692 293.02 497.91 289.395 497.91 284.9C497.91 279.486 494.257 276.393 487.214 276.393C480.17 276.393 476.518 279.486 476.518 284.9V288.186H483.3V284.561C483.3 282.145 484.735 281.226 487.018 281.226C489.301 281.226 490.736 282.048 490.736 285.093ZM508.932 284.561C508.932 282.145 510.367 281.226 512.649 281.226C514.932 281.226 516.367 282.145 516.367 284.561V302.832C516.367 305.248 514.932 306.167 512.649 306.167C510.367 306.167 508.932 305.248 508.932 302.832V284.561ZM501.758 302.493C501.758 307.907 505.606 311 512.649 311C519.693 311 523.541 307.907 523.541 302.493V284.9C523.541 279.486 519.693 276.393 512.649 276.393C505.606 276.393 501.758 279.486 501.758 284.9V302.493ZM542.39 285.093C542.39 288.718 540.825 291.376 535.346 295.678C529.998 299.835 528.172 302.687 528.172 306.457V310.613H548.912V305.78H535.346C535.281 305.538 535.281 305.297 535.281 305.055C535.281 303.267 536.455 301.672 540.694 298.288C547.347 293.02 549.564 289.395 549.564 284.9C549.564 279.486 545.912 276.393 538.868 276.393C531.824 276.393 528.172 279.486 528.172 284.9V288.186H534.955V284.561C534.955 282.145 536.39 281.226 538.672 281.226C540.955 281.226 542.39 282.048 542.39 285.093ZM567.826 286.978C567.826 289.685 566.195 290.555 563.521 290.555H560.717V295.388H563.13C566.391 295.388 567.826 296.548 567.826 299.69V302.348C567.826 305.345 566.391 306.167 564.108 306.167C561.826 306.167 560.391 305.248 560.391 302.832V299.69H553.608V302.493C553.608 307.907 557.26 311 564.304 311C571.348 311 575 307.907 575 302.493V299.835C575 296.403 573.565 293.938 569.978 292.778V292.681C573.435 291.618 575 289.395 575 285.77V284.9C575 279.486 571.348 276.393 564.304 276.393C557.26 276.393 553.608 279.486 553.608 284.9V286.736H560.391V284.561C560.391 282.145 561.826 281.226 564.108 281.226C566.391 281.226 567.826 282.048 567.826 285.093V286.978Z" stroke="white" stroke-width="3" stroke-miterlimit="10"/>
</svg>
